<svg xmlns="http://www.w3.org/2000/svg" xmlns:xlink="http://www.w3.org/1999/xlink" width="500" zoomAndPan="magnify" viewBox="0 0 375 374.999991" height="500" preserveAspectRatio="xMidYMid meet" version="1.0"><defs><g/><clipPath id="239a237281"><rect x="0" width="102" y="0" height="100"/></clipPath><clipPath id="1a134c7ed5"><path d="M 245.007812 139.441406 L 263.007812 139.441406 L 263.007812 157.441406 L 245.007812 157.441406 Z M 245.007812 139.441406 " clip-rule="nonzero"/></clipPath><clipPath id="a72d4e7477"><rect x="0" width="102" y="0" height="99"/></clipPath><clipPath id="ef0a2748fd"><path d="M 1 0.441406 L 116 0.441406 L 116 22 L 1 22 Z M 1 0.441406 " clip-rule="nonzero"/></clipPath><clipPath id="076e0f5e3c"><rect x="0" width="117" y="0" height="23"/></clipPath></defs><g transform="matrix(1, 0, 0, 1, 137, 135)"><g clip-path="url(#239a237281)"><g fill="#ffffff" fill-opacity="1"><g transform="translate(1.212349, 80.816945)"><g><path d="M 45.964844 -78.105469 L 47.167969 -78.105469 L 47.167969 -55.25 C 47.167969 -48.921875 44.917969 -43.546875 40.421875 -39.125 L 39.890625 -39.667969 L 40.460938 -39.167969 C 39.792969 -38.40625 38.941406 -38.023438 37.898438 -38.023438 C 36.859375 -38.023438 36.007812 -38.40625 35.339844 -39.167969 L 35.910156 -39.667969 L 35.410156 -39.097656 C 34.648438 -39.761719 34.269531 -40.617188 34.269531 -41.65625 C 34.269531 -42.699219 34.648438 -43.550781 35.410156 -44.21875 L 35.910156 -43.644531 L 35.339844 -44.144531 C 36.007812 -44.910156 36.859375 -45.289062 37.898438 -45.289062 C 38.941406 -45.289062 39.792969 -44.910156 40.460938 -44.144531 L 39.890625 -43.644531 L 40.390625 -44.21875 C 41.152344 -43.550781 41.53125 -42.699219 41.53125 -41.65625 C 41.53125 -41.390625 41.46875 -41.128906 41.34375 -40.875 L 40.664062 -41.214844 L 40.089844 -41.714844 C 43.5 -45.625 45.207031 -50.132812 45.207031 -55.25 C 45.207031 -61.003906 43.144531 -65.945312 39.019531 -70.070312 C 38.378906 -70.714844 37.699219 -71.320312 36.984375 -71.890625 L 37.457031 -72.484375 L 37.457031 -71.726562 C 37.175781 -71.726562 36.886719 -71.875 36.589844 -72.167969 L 37.125 -72.707031 L 36.679688 -72.09375 C 34.832031 -73.441406 32.878906 -74.4375 30.824219 -75.074219 C 28.683594 -75.789062 26.511719 -76.144531 24.308594 -76.144531 C 18.554688 -76.144531 13.652344 -74.085938 9.601562 -69.964844 L 9.378906 -69.738281 L 8.949219 -69.738281 L 8.949219 -70.496094 L 9.488281 -69.960938 C 6.5 -66.96875 5.355469 -62.984375 6.054688 -58.007812 C 6.699219 -52.871094 9.09375 -48.261719 13.238281 -44.1875 L 12.707031 -43.644531 L 13.199219 -44.226562 L 40.402344 -21.222656 L 40.425781 -21.199219 C 43.398438 -18.230469 45.378906 -14.796875 46.371094 -10.90625 C 47.359375 -7.023438 47.359375 -3.125 46.371094 0.792969 C 45.378906 4.722656 43.398438 8.171875 40.425781 11.144531 C 36.003906 15.566406 30.671875 17.777344 24.417969 17.777344 L 24.308594 17.777344 C 19.28125 17.777344 14.785156 16.328125 10.824219 13.429688 L 10.511719 13.203125 L 10.511719 12.707031 L 11.269531 12.707031 L 11.269531 13.46875 L 10.84375 13.46875 L 10.621094 13.246094 C 10.605469 13.230469 10.5625 13.203125 10.488281 13.164062 L 10.445312 13.144531 L 10.40625 13.117188 C 9.652344 12.613281 8.832031 12.363281 7.957031 12.363281 C 6.691406 12.363281 5.617188 12.804688 4.734375 13.6875 L 4.714844 13.707031 C 3.847656 14.511719 3.410156 15.542969 3.410156 16.796875 L 3.410156 17.777344 L 1.449219 17.777344 L 1.449219 -5.84375 L 3.410156 -5.84375 L 3.410156 -5.082031 C 3.410156 0.675781 5.472656 5.613281 9.597656 9.738281 C 10.242188 10.382812 10.921875 10.988281 11.632812 11.5625 L 11.667969 11.585938 L 11.699219 11.617188 C 11.710938 11.632812 11.757812 11.660156 11.832031 11.695312 L 11.886719 11.726562 L 11.941406 11.761719 C 15.636719 14.464844 19.761719 15.816406 24.308594 15.816406 L 24.417969 15.816406 C 27.1875 15.816406 29.816406 15.28125 32.296875 14.21875 C 34.863281 13.148438 37.101562 11.65625 39.019531 9.738281 C 41.035156 7.726562 42.234375 5.238281 42.617188 2.277344 C 43.003906 -0.726562 42.578125 -3.863281 41.332031 -7.132812 C 40.082031 -10.421875 38.097656 -13.425781 35.375 -16.148438 L 35.910156 -16.683594 L 35.421875 -16.105469 L 8.21875 -39.105469 L 8.195312 -39.125 C 3.699219 -43.546875 1.449219 -48.921875 1.449219 -55.25 C 1.449219 -61.574219 3.699219 -66.949219 8.195312 -71.371094 L 8.730469 -70.828125 L 8.183594 -71.355469 C 10.316406 -73.566406 12.761719 -75.246094 15.507812 -76.390625 C 18.332031 -77.535156 21.265625 -78.105469 24.308594 -78.105469 C 29.339844 -78.105469 33.839844 -76.621094 37.804688 -73.644531 L 37.347656 -73.039062 L 37.347656 -73.796875 C 37.632812 -73.796875 37.882812 -73.6875 38.105469 -73.464844 L 38.214844 -73.355469 L 37.679688 -72.816406 L 38.078125 -73.464844 C 38.914062 -72.949219 39.773438 -72.691406 40.664062 -72.691406 C 41.9375 -72.691406 43.015625 -73.105469 43.902344 -73.925781 L 44.417969 -73.371094 L 43.882812 -73.90625 C 44.765625 -74.789062 45.207031 -75.863281 45.207031 -77.125 L 45.207031 -78.105469 Z M 45.964844 -76.585938 L 45.964844 -77.347656 L 46.726562 -77.347656 L 46.726562 -77.125 C 46.726562 -75.445312 46.136719 -74.011719 44.957031 -72.832031 L 44.945312 -72.824219 L 44.9375 -72.8125 C 43.757812 -71.71875 42.335938 -71.171875 40.664062 -71.171875 C 39.488281 -71.171875 38.359375 -71.503906 37.28125 -72.171875 L 37.207031 -72.21875 L 37.085938 -72.335938 L 37.03125 -72.390625 C 37.105469 -72.316406 37.210938 -72.277344 37.347656 -72.277344 L 37.09375 -72.277344 L 36.890625 -72.429688 C 33.195312 -75.203125 29.003906 -76.585938 24.308594 -76.585938 C 21.460938 -76.585938 18.722656 -76.054688 16.09375 -74.988281 C 13.539062 -73.925781 11.265625 -72.363281 9.277344 -70.300781 L 9.261719 -70.285156 C 5.066406 -66.164062 2.96875 -61.148438 2.96875 -55.25 C 2.96875 -49.347656 5.066406 -44.332031 9.261719 -40.210938 L 8.730469 -39.667969 L 9.21875 -40.25 L 36.425781 -17.246094 L 36.449219 -17.222656 C 39.324219 -14.347656 41.425781 -11.164062 42.753906 -7.671875 C 44.089844 -4.164062 44.542969 -0.785156 44.125 2.472656 C 43.695312 5.773438 42.351562 8.554688 40.09375 10.8125 C 38.035156 12.875 35.636719 14.472656 32.894531 15.617188 C 30.222656 16.761719 27.398438 17.335938 24.417969 17.335938 L 24.308594 17.335938 C 19.429688 17.335938 15.007812 15.886719 11.042969 12.988281 L 11.492188 12.375 L 11.152344 13.054688 C 10.929688 12.945312 10.753906 12.824219 10.621094 12.691406 L 11.160156 12.15625 L 10.6875 12.746094 C 9.925781 12.140625 9.207031 11.496094 8.523438 10.8125 C 4.101562 6.390625 1.890625 1.09375 1.890625 -5.082031 L 2.652344 -5.082031 L 2.652344 -4.324219 L 2.210938 -4.324219 L 2.210938 -5.082031 L 2.96875 -5.082031 L 2.96875 17.015625 L 2.210938 17.015625 L 2.210938 16.257812 L 2.652344 16.257812 L 2.652344 17.015625 L 1.890625 17.015625 L 1.890625 16.796875 C 1.890625 15.101562 2.488281 13.699219 3.683594 12.59375 L 4.199219 13.148438 L 3.660156 12.613281 C 4.839844 11.433594 6.273438 10.84375 7.957031 10.84375 C 9.140625 10.84375 10.238281 11.179688 11.25 11.855469 L 10.828125 12.484375 L 11.167969 11.804688 C 11.390625 11.917969 11.566406 12.039062 11.699219 12.167969 L 11.160156 12.707031 L 11.160156 11.949219 L 12.03125 11.949219 L 12.03125 12.816406 L 11.269531 12.816406 L 11.71875 12.203125 C 15.414062 14.90625 19.613281 16.257812 24.308594 16.257812 L 24.417969 16.257812 C 30.25 16.257812 35.226562 14.195312 39.351562 10.070312 C 42.125 7.296875 43.976562 4.082031 44.898438 0.421875 C 45.824219 -3.246094 45.824219 -6.898438 44.898438 -10.53125 C 43.976562 -14.152344 42.125 -17.351562 39.351562 -20.125 L 39.890625 -20.664062 L 39.398438 -20.082031 L 12.195312 -43.085938 L 12.175781 -43.105469 C 7.777344 -47.425781 5.234375 -52.324219 4.550781 -57.792969 C 3.78125 -63.273438 5.066406 -67.6875 8.414062 -71.035156 L 8.636719 -71.257812 L 9.0625 -71.257812 L 9.0625 -70.496094 L 8.519531 -71.027344 C 12.867188 -75.453125 18.128906 -77.664062 24.308594 -77.664062 C 26.675781 -77.664062 28.996094 -77.285156 31.273438 -76.527344 C 33.492188 -75.839844 35.589844 -74.769531 37.574219 -73.320312 L 37.621094 -73.285156 L 37.664062 -73.242188 C 37.703125 -73.207031 37.726562 -73.183594 37.742188 -73.171875 C 37.667969 -73.222656 37.574219 -73.246094 37.457031 -73.246094 L 37.726562 -73.246094 L 37.933594 -73.078125 C 38.691406 -72.472656 39.414062 -71.828125 40.09375 -71.144531 C 44.515625 -66.722656 46.726562 -61.425781 46.726562 -55.25 C 46.726562 -49.753906 44.894531 -44.910156 41.234375 -40.714844 L 39.984375 -41.554688 C 40.003906 -41.59375 40.011719 -41.628906 40.011719 -41.65625 C 40.011719 -42.238281 39.804688 -42.710938 39.390625 -43.074219 L 39.351562 -43.109375 L 39.316406 -43.144531 C 38.953125 -43.5625 38.480469 -43.769531 37.898438 -43.769531 C 37.320312 -43.769531 36.847656 -43.5625 36.484375 -43.144531 L 36.449219 -43.109375 L 36.410156 -43.074219 C 35.996094 -42.710938 35.785156 -42.238281 35.785156 -41.65625 C 35.785156 -41.078125 35.996094 -40.605469 36.410156 -40.238281 L 36.449219 -40.207031 L 36.484375 -40.167969 C 36.847656 -39.753906 37.320312 -39.542969 37.898438 -39.542969 C 38.480469 -39.542969 38.953125 -39.753906 39.316406 -40.167969 L 39.335938 -40.191406 L 39.355469 -40.210938 C 43.550781 -44.332031 45.648438 -49.347656 45.648438 -55.25 L 45.648438 -77.347656 L 46.410156 -77.347656 L 46.410156 -76.585938 Z M 45.964844 -76.585938 "/></g></g></g><g fill="#ffffff" fill-opacity="1"><g transform="translate(51.15224, 80.816945)"><g><path d="M 45.964844 -78.105469 L 47.167969 -78.105469 L 47.167969 -55.25 C 47.167969 -48.921875 44.917969 -43.546875 40.421875 -39.125 L 39.890625 -39.667969 L 40.460938 -39.167969 C 39.792969 -38.40625 38.941406 -38.023438 37.898438 -38.023438 C 36.859375 -38.023438 36.007812 -38.40625 35.339844 -39.167969 L 35.910156 -39.667969 L 35.410156 -39.097656 C 34.648438 -39.761719 34.269531 -40.617188 34.269531 -41.65625 C 34.269531 -42.699219 34.648438 -43.550781 35.410156 -44.21875 L 35.910156 -43.644531 L 35.339844 -44.144531 C 36.007812 -44.910156 36.859375 -45.289062 37.898438 -45.289062 C 38.941406 -45.289062 39.792969 -44.910156 40.460938 -44.144531 L 39.890625 -43.644531 L 40.390625 -44.21875 C 41.152344 -43.550781 41.53125 -42.699219 41.53125 -41.65625 C 41.53125 -41.390625 41.46875 -41.128906 41.34375 -40.875 L 40.664062 -41.214844 L 40.089844 -41.714844 C 43.5 -45.625 45.207031 -50.132812 45.207031 -55.25 C 45.207031 -61.003906 43.144531 -65.945312 39.019531 -70.070312 C 38.378906 -70.714844 37.699219 -71.320312 36.984375 -71.890625 L 37.457031 -72.484375 L 37.457031 -71.726562 C 37.175781 -71.726562 36.886719 -71.875 36.589844 -72.167969 L 37.125 -72.707031 L 36.679688 -72.09375 C 34.832031 -73.441406 32.878906 -74.4375 30.824219 -75.074219 C 28.683594 -75.789062 26.511719 -76.144531 24.308594 -76.144531 C 18.554688 -76.144531 13.652344 -74.085938 9.601562 -69.964844 L 9.378906 -69.738281 L 8.949219 -69.738281 L 8.949219 -70.496094 L 9.488281 -69.960938 C 6.5 -66.96875 5.355469 -62.984375 6.054688 -58.007812 C 6.699219 -52.871094 9.09375 -48.261719 13.238281 -44.1875 L 12.707031 -43.644531 L 13.199219 -44.226562 L 40.402344 -21.222656 L 40.425781 -21.199219 C 43.398438 -18.230469 45.378906 -14.796875 46.371094 -10.90625 C 47.359375 -7.023438 47.359375 -3.125 46.371094 0.792969 C 45.378906 4.722656 43.398438 8.171875 40.425781 11.144531 C 36.003906 15.566406 30.671875 17.777344 24.417969 17.777344 L 24.308594 17.777344 C 19.28125 17.777344 14.785156 16.328125 10.824219 13.429688 L 10.511719 13.203125 L 10.511719 12.707031 L 11.269531 12.707031 L 11.269531 13.46875 L 10.84375 13.46875 L 10.621094 13.246094 C 10.605469 13.230469 10.5625 13.203125 10.488281 13.164062 L 10.445312 13.144531 L 10.40625 13.117188 C 9.652344 12.613281 8.832031 12.363281 7.957031 12.363281 C 6.691406 12.363281 5.617188 12.804688 4.734375 13.6875 L 4.714844 13.707031 C 3.847656 14.511719 3.410156 15.542969 3.410156 16.796875 L 3.410156 17.777344 L 1.449219 17.777344 L 1.449219 -5.84375 L 3.410156 -5.84375 L 3.410156 -5.082031 C 3.410156 0.675781 5.472656 5.613281 9.597656 9.738281 C 10.242188 10.382812 10.921875 10.988281 11.632812 11.5625 L 11.667969 11.585938 L 11.699219 11.617188 C 11.710938 11.632812 11.757812 11.660156 11.832031 11.695312 L 11.886719 11.726562 L 11.941406 11.761719 C 15.636719 14.464844 19.761719 15.816406 24.308594 15.816406 L 24.417969 15.816406 C 27.1875 15.816406 29.816406 15.28125 32.296875 14.21875 C 34.863281 13.148438 37.101562 11.65625 39.019531 9.738281 C 41.035156 7.726562 42.234375 5.238281 42.617188 2.277344 C 43.003906 -0.726562 42.578125 -3.863281 41.332031 -7.132812 C 40.082031 -10.421875 38.097656 -13.425781 35.375 -16.148438 L 35.910156 -16.683594 L 35.421875 -16.105469 L 8.21875 -39.105469 L 8.195312 -39.125 C 3.699219 -43.546875 1.449219 -48.921875 1.449219 -55.25 C 1.449219 -61.574219 3.699219 -66.949219 8.195312 -71.371094 L 8.730469 -70.828125 L 8.183594 -71.355469 C 10.316406 -73.566406 12.761719 -75.246094 15.507812 -76.390625 C 18.332031 -77.535156 21.265625 -78.105469 24.308594 -78.105469 C 29.339844 -78.105469 33.839844 -76.621094 37.804688 -73.644531 L 37.347656 -73.039062 L 37.347656 -73.796875 C 37.632812 -73.796875 37.882812 -73.6875 38.105469 -73.464844 L 38.214844 -73.355469 L 37.679688 -72.816406 L 38.078125 -73.464844 C 38.914062 -72.949219 39.773438 -72.691406 40.664062 -72.691406 C 41.9375 -72.691406 43.015625 -73.105469 43.902344 -73.925781 L 44.417969 -73.371094 L 43.882812 -73.90625 C 44.765625 -74.789062 45.207031 -75.863281 45.207031 -77.125 L 45.207031 -78.105469 Z M 45.964844 -76.585938 L 45.964844 -77.347656 L 46.726562 -77.347656 L 46.726562 -77.125 C 46.726562 -75.445312 46.136719 -74.011719 44.957031 -72.832031 L 44.945312 -72.824219 L 44.9375 -72.8125 C 43.757812 -71.71875 42.335938 -71.171875 40.664062 -71.171875 C 39.488281 -71.171875 38.359375 -71.503906 37.28125 -72.171875 L 37.207031 -72.21875 L 37.085938 -72.335938 L 37.03125 -72.390625 C 37.105469 -72.316406 37.210938 -72.277344 37.347656 -72.277344 L 37.09375 -72.277344 L 36.890625 -72.429688 C 33.195312 -75.203125 29.003906 -76.585938 24.308594 -76.585938 C 21.460938 -76.585938 18.722656 -76.054688 16.09375 -74.988281 C 13.539062 -73.925781 11.265625 -72.363281 9.277344 -70.300781 L 9.261719 -70.285156 C 5.066406 -66.164062 2.96875 -61.148438 2.96875 -55.25 C 2.96875 -49.347656 5.066406 -44.332031 9.261719 -40.210938 L 8.730469 -39.667969 L 9.21875 -40.25 L 36.425781 -17.246094 L 36.449219 -17.222656 C 39.324219 -14.347656 41.425781 -11.164062 42.753906 -7.671875 C 44.089844 -4.164062 44.542969 -0.785156 44.125 2.472656 C 43.695312 5.773438 42.351562 8.554688 40.09375 10.8125 C 38.035156 12.875 35.636719 14.472656 32.894531 15.617188 C 30.222656 16.761719 27.398438 17.335938 24.417969 17.335938 L 24.308594 17.335938 C 19.429688 17.335938 15.007812 15.886719 11.042969 12.988281 L 11.492188 12.375 L 11.152344 13.054688 C 10.929688 12.945312 10.753906 12.824219 10.621094 12.691406 L 11.160156 12.15625 L 10.6875 12.746094 C 9.925781 12.140625 9.207031 11.496094 8.523438 10.8125 C 4.101562 6.390625 1.890625 1.09375 1.890625 -5.082031 L 2.652344 -5.082031 L 2.652344 -4.324219 L 2.210938 -4.324219 L 2.210938 -5.082031 L 2.96875 -5.082031 L 2.96875 17.015625 L 2.210938 17.015625 L 2.210938 16.257812 L 2.652344 16.257812 L 2.652344 17.015625 L 1.890625 17.015625 L 1.890625 16.796875 C 1.890625 15.101562 2.488281 13.699219 3.683594 12.59375 L 4.199219 13.148438 L 3.660156 12.613281 C 4.839844 11.433594 6.273438 10.84375 7.957031 10.84375 C 9.140625 10.84375 10.238281 11.179688 11.25 11.855469 L 10.828125 12.484375 L 11.167969 11.804688 C 11.390625 11.917969 11.566406 12.039062 11.699219 12.167969 L 11.160156 12.707031 L 11.160156 11.949219 L 12.03125 11.949219 L 12.03125 12.816406 L 11.269531 12.816406 L 11.71875 12.203125 C 15.414062 14.90625 19.613281 16.257812 24.308594 16.257812 L 24.417969 16.257812 C 30.25 16.257812 35.226562 14.195312 39.351562 10.070312 C 42.125 7.296875 43.976562 4.082031 44.898438 0.421875 C 45.824219 -3.246094 45.824219 -6.898438 44.898438 -10.53125 C 43.976562 -14.152344 42.125 -17.351562 39.351562 -20.125 L 39.890625 -20.664062 L 39.398438 -20.082031 L 12.195312 -43.085938 L 12.175781 -43.105469 C 7.777344 -47.425781 5.234375 -52.324219 4.550781 -57.792969 C 3.78125 -63.273438 5.066406 -67.6875 8.414062 -71.035156 L 8.636719 -71.257812 L 9.0625 -71.257812 L 9.0625 -70.496094 L 8.519531 -71.027344 C 12.867188 -75.453125 18.128906 -77.664062 24.308594 -77.664062 C 26.675781 -77.664062 28.996094 -77.285156 31.273438 -76.527344 C 33.492188 -75.839844 35.589844 -74.769531 37.574219 -73.320312 L 37.621094 -73.285156 L 37.664062 -73.242188 C 37.703125 -73.207031 37.726562 -73.183594 37.742188 -73.171875 C 37.667969 -73.222656 37.574219 -73.246094 37.457031 -73.246094 L 37.726562 -73.246094 L 37.933594 -73.078125 C 38.691406 -72.472656 39.414062 -71.828125 40.09375 -71.144531 C 44.515625 -66.722656 46.726562 -61.425781 46.726562 -55.25 C 46.726562 -49.753906 44.894531 -44.910156 41.234375 -40.714844 L 39.984375 -41.554688 C 40.003906 -41.59375 40.011719 -41.628906 40.011719 -41.65625 C 40.011719 -42.238281 39.804688 -42.710938 39.390625 -43.074219 L 39.351562 -43.109375 L 39.316406 -43.144531 C 38.953125 -43.5625 38.480469 -43.769531 37.898438 -43.769531 C 37.320312 -43.769531 36.847656 -43.5625 36.484375 -43.144531 L 36.449219 -43.109375 L 36.410156 -43.074219 C 35.996094 -42.710938 35.785156 -42.238281 35.785156 -41.65625 C 35.785156 -41.078125 35.996094 -40.605469 36.410156 -40.238281 L 36.449219 -40.207031 L 36.484375 -40.167969 C 36.847656 -39.753906 37.320312 -39.542969 37.898438 -39.542969 C 38.480469 -39.542969 38.953125 -39.753906 39.316406 -40.167969 L 39.335938 -40.191406 L 39.355469 -40.210938 C 43.550781 -44.332031 45.648438 -49.347656 45.648438 -55.25 L 45.648438 -77.347656 L 46.410156 -77.347656 L 46.410156 -76.585938 Z M 45.964844 -76.585938 "/></g></g></g><g fill="#03234d" fill-opacity="1"><g transform="translate(1.212349, 80.816945)"><g><path d="M 45.96875 -77.34375 L 46.40625 -77.34375 L 46.40625 -55.25 C 46.40625 -49.132812 44.234375 -43.941406 39.890625 -39.671875 C 39.367188 -39.078125 38.707031 -38.78125 37.90625 -38.78125 C 37.09375 -38.78125 36.425781 -39.078125 35.90625 -39.671875 C 35.320312 -40.179688 35.03125 -40.84375 35.03125 -41.65625 C 35.03125 -42.46875 35.320312 -43.128906 35.90625 -43.640625 C 36.425781 -44.234375 37.09375 -44.53125 37.90625 -44.53125 C 38.707031 -44.53125 39.367188 -44.234375 39.890625 -43.640625 C 40.484375 -43.128906 40.78125 -42.46875 40.78125 -41.65625 C 40.78125 -41.507812 40.738281 -41.363281 40.65625 -41.21875 C 44.195312 -45.269531 45.96875 -49.945312 45.96875 -55.25 C 45.96875 -61.21875 43.832031 -66.335938 39.5625 -70.609375 C 38.894531 -71.273438 38.191406 -71.898438 37.453125 -72.484375 C 37.378906 -72.484375 37.269531 -72.554688 37.125 -72.703125 C 35.207031 -74.109375 33.179688 -75.140625 31.046875 -75.796875 C 28.835938 -76.535156 26.59375 -76.90625 24.3125 -76.90625 C 18.34375 -76.90625 13.257812 -74.769531 9.0625 -70.5 C 8.988281 -70.5 8.953125 -70.5 8.953125 -70.5 C 5.785156 -67.332031 4.566406 -63.132812 5.296875 -57.90625 C 5.960938 -52.601562 8.429688 -47.847656 12.703125 -43.640625 L 39.890625 -20.65625 C 42.765625 -17.789062 44.679688 -14.476562 45.640625 -10.71875 C 46.597656 -6.957031 46.597656 -3.179688 45.640625 0.609375 C 44.679688 4.398438 42.765625 7.734375 39.890625 10.609375 C 35.617188 14.878906 30.460938 17.015625 24.421875 17.015625 L 24.3125 17.015625 C 19.445312 17.015625 15.097656 15.613281 11.265625 12.8125 L 11.265625 12.703125 L 11.15625 12.703125 C 11.082031 12.628906 10.972656 12.554688 10.828125 12.484375 C 9.941406 11.898438 8.984375 11.609375 7.953125 11.609375 C 6.484375 11.609375 5.234375 12.125 4.203125 13.15625 C 3.171875 14.113281 2.65625 15.328125 2.65625 16.796875 L 2.65625 17.015625 L 2.203125 17.015625 L 2.203125 -5.078125 L 2.65625 -5.078125 C 2.65625 0.890625 4.789062 6.007812 9.0625 10.28125 C 9.726562 10.9375 10.425781 11.5625 11.15625 12.15625 C 11.226562 12.226562 11.335938 12.300781 11.484375 12.375 C 15.316406 15.175781 19.59375 16.578125 24.3125 16.578125 L 24.421875 16.578125 C 27.296875 16.578125 30.019531 16.023438 32.59375 14.921875 C 35.25 13.816406 37.570312 12.269531 39.5625 10.28125 C 41.695312 8.144531 42.96875 5.507812 43.375 2.375 C 43.78125 -0.757812 43.335938 -4.019531 42.046875 -7.40625 C 40.753906 -10.789062 38.707031 -13.882812 35.90625 -16.6875 L 8.734375 -39.671875 C 4.378906 -43.941406 2.203125 -49.132812 2.203125 -55.25 C 2.203125 -61.363281 4.378906 -66.554688 8.734375 -70.828125 C 10.796875 -72.960938 13.148438 -74.582031 15.796875 -75.6875 C 18.523438 -76.789062 21.363281 -77.34375 24.3125 -77.34375 C 29.175781 -77.34375 33.519531 -75.910156 37.34375 -73.046875 C 37.414062 -73.046875 37.488281 -73.007812 37.5625 -72.9375 C 37.5625 -72.9375 37.582031 -72.914062 37.625 -72.875 C 37.664062 -72.832031 37.6875 -72.8125 37.6875 -72.8125 C 38.632812 -72.226562 39.625 -71.9375 40.65625 -71.9375 C 42.132812 -71.9375 43.390625 -72.414062 44.421875 -73.375 C 45.453125 -74.40625 45.96875 -75.65625 45.96875 -77.125 Z M 45.96875 -77.34375 "/></g></g></g><g fill="#03234d" fill-opacity="1"><g transform="translate(51.15224, 80.816945)"><g><path d="M 45.96875 -77.34375 L 46.40625 -77.34375 L 46.40625 -55.25 C 46.40625 -49.132812 44.234375 -43.941406 39.890625 -39.671875 C 39.367188 -39.078125 38.707031 -38.78125 37.90625 -38.78125 C 37.09375 -38.78125 36.425781 -39.078125 35.90625 -39.671875 C 35.320312 -40.179688 35.03125 -40.84375 35.03125 -41.65625 C 35.03125 -42.46875 35.320312 -43.128906 35.90625 -43.640625 C 36.425781 -44.234375 37.09375 -44.53125 37.90625 -44.53125 C 38.707031 -44.53125 39.367188 -44.234375 39.890625 -43.640625 C 40.484375 -43.128906 40.78125 -42.46875 40.78125 -41.65625 C 40.78125 -41.507812 40.738281 -41.363281 40.65625 -41.21875 C 44.195312 -45.269531 45.96875 -49.945312 45.96875 -55.25 C 45.96875 -61.21875 43.832031 -66.335938 39.5625 -70.609375 C 38.894531 -71.273438 38.191406 -71.898438 37.453125 -72.484375 C 37.378906 -72.484375 37.269531 -72.554688 37.125 -72.703125 C 35.207031 -74.109375 33.179688 -75.140625 31.046875 -75.796875 C 28.835938 -76.535156 26.59375 -76.90625 24.3125 -76.90625 C 18.34375 -76.90625 13.257812 -74.769531 9.0625 -70.5 C 8.988281 -70.5 8.953125 -70.5 8.953125 -70.5 C 5.785156 -67.332031 4.566406 -63.132812 5.296875 -57.90625 C 5.960938 -52.601562 8.429688 -47.847656 12.703125 -43.640625 L 39.890625 -20.65625 C 42.765625 -17.789062 44.679688 -14.476562 45.640625 -10.71875 C 46.597656 -6.957031 46.597656 -3.179688 45.640625 0.609375 C 44.679688 4.398438 42.765625 7.734375 39.890625 10.609375 C 35.617188 14.878906 30.460938 17.015625 24.421875 17.015625 L 24.3125 17.015625 C 19.445312 17.015625 15.097656 15.613281 11.265625 12.8125 L 11.265625 12.703125 L 11.15625 12.703125 C 11.082031 12.628906 10.972656 12.554688 10.828125 12.484375 C 9.941406 11.898438 8.984375 11.609375 7.953125 11.609375 C 6.484375 11.609375 5.234375 12.125 4.203125 13.15625 C 3.171875 14.113281 2.65625 15.328125 2.65625 16.796875 L 2.65625 17.015625 L 2.203125 17.015625 L 2.203125 -5.078125 L 2.65625 -5.078125 C 2.65625 0.890625 4.789062 6.007812 9.0625 10.28125 C 9.726562 10.9375 10.425781 11.5625 11.15625 12.15625 C 11.226562 12.226562 11.335938 12.300781 11.484375 12.375 C 15.316406 15.175781 19.59375 16.578125 24.3125 16.578125 L 24.421875 16.578125 C 27.296875 16.578125 30.019531 16.023438 32.59375 14.921875 C 35.25 13.816406 37.570312 12.269531 39.5625 10.28125 C 41.695312 8.144531 42.96875 5.507812 43.375 2.375 C 43.78125 -0.757812 43.335938 -4.019531 42.046875 -7.40625 C 40.753906 -10.789062 38.707031 -13.882812 35.90625 -16.6875 L 8.734375 -39.671875 C 4.378906 -43.941406 2.203125 -49.132812 2.203125 -55.25 C 2.203125 -61.363281 4.378906 -66.554688 8.734375 -70.828125 C 10.796875 -72.960938 13.148438 -74.582031 15.796875 -75.6875 C 18.523438 -76.789062 21.363281 -77.34375 24.3125 -77.34375 C 29.175781 -77.34375 33.519531 -75.910156 37.34375 -73.046875 C 37.414062 -73.046875 37.488281 -73.007812 37.5625 -72.9375 C 37.5625 -72.9375 37.582031 -72.914062 37.625 -72.875 C 37.664062 -72.832031 37.6875 -72.8125 37.6875 -72.8125 C 38.632812 -72.226562 39.625 -71.9375 40.65625 -71.9375 C 42.132812 -71.9375 43.390625 -72.414062 44.421875 -73.375 C 45.453125 -74.40625 45.96875 -75.65625 45.96875 -77.125 Z M 45.96875 -77.34375 "/></g></g></g></g></g><g transform="matrix(1, 0, 0, 1, 137, 135)"><g clip-path="url(#a72d4e7477)"><g fill="#ffffff" fill-opacity="1"><g transform="translate(1.212349, 80.816945)"><g><path d="M 45.96875 -77.34375 L 46.40625 -77.34375 L 46.40625 -55.25 C 46.40625 -49.132812 44.234375 -43.941406 39.890625 -39.671875 C 39.367188 -39.078125 38.707031 -38.78125 37.90625 -38.78125 C 37.09375 -38.78125 36.425781 -39.078125 35.90625 -39.671875 C 35.320312 -40.179688 35.03125 -40.84375 35.03125 -41.65625 C 35.03125 -42.46875 35.320312 -43.128906 35.90625 -43.640625 C 36.425781 -44.234375 37.09375 -44.53125 37.90625 -44.53125 C 38.707031 -44.53125 39.367188 -44.234375 39.890625 -43.640625 C 40.484375 -43.128906 40.78125 -42.46875 40.78125 -41.65625 C 40.78125 -41.507812 40.738281 -41.363281 40.65625 -41.21875 C 44.195312 -45.269531 45.96875 -49.945312 45.96875 -55.25 C 45.96875 -61.21875 43.832031 -66.335938 39.5625 -70.609375 C 38.894531 -71.273438 38.191406 -71.898438 37.453125 -72.484375 C 37.378906 -72.484375 37.269531 -72.554688 37.125 -72.703125 C 35.207031 -74.109375 33.179688 -75.140625 31.046875 -75.796875 C 28.835938 -76.535156 26.59375 -76.90625 24.3125 -76.90625 C 18.34375 -76.90625 13.257812 -74.769531 9.0625 -70.5 C 8.988281 -70.5 8.953125 -70.5 8.953125 -70.5 C 5.785156 -67.332031 4.566406 -63.132812 5.296875 -57.90625 C 5.960938 -52.601562 8.429688 -47.847656 12.703125 -43.640625 L 39.890625 -20.65625 C 42.765625 -17.789062 44.679688 -14.476562 45.640625 -10.71875 C 46.597656 -6.957031 46.597656 -3.179688 45.640625 0.609375 C 44.679688 4.398438 42.765625 7.734375 39.890625 10.609375 C 35.617188 14.878906 30.460938 17.015625 24.421875 17.015625 L 24.3125 17.015625 C 19.445312 17.015625 15.097656 15.613281 11.265625 12.8125 L 11.265625 12.703125 L 11.15625 12.703125 C 11.082031 12.628906 10.972656 12.554688 10.828125 12.484375 C 9.941406 11.898438 8.984375 11.609375 7.953125 11.609375 C 6.484375 11.609375 5.234375 12.125 4.203125 13.15625 C 3.171875 14.113281 2.65625 15.328125 2.65625 16.796875 L 2.65625 17.015625 L 2.203125 17.015625 L 2.203125 -5.078125 L 2.65625 -5.078125 C 2.65625 0.890625 4.789062 6.007812 9.0625 10.28125 C 9.726562 10.9375 10.425781 11.5625 11.15625 12.15625 C 11.226562 12.226562 11.335938 12.300781 11.484375 12.375 C 15.316406 15.175781 19.59375 16.578125 24.3125 16.578125 L 24.421875 16.578125 C 27.296875 16.578125 30.019531 16.023438 32.59375 14.921875 C 35.25 13.816406 37.570312 12.269531 39.5625 10.28125 C 41.695312 8.144531 42.96875 5.507812 43.375 2.375 C 43.78125 -0.757812 43.335938 -4.019531 42.046875 -7.40625 C 40.753906 -10.789062 38.707031 -13.882812 35.90625 -16.6875 L 8.734375 -39.671875 C 4.378906 -43.941406 2.203125 -49.132812 2.203125 -55.25 C 2.203125 -61.363281 4.378906 -66.554688 8.734375 -70.828125 C 10.796875 -72.960938 13.148438 -74.582031 15.796875 -75.6875 C 18.523438 -76.789062 21.363281 -77.34375 24.3125 -77.34375 C 29.175781 -77.34375 33.519531 -75.910156 37.34375 -73.046875 C 37.414062 -73.046875 37.488281 -73.007812 37.5625 -72.9375 C 37.5625 -72.9375 37.582031 -72.914062 37.625 -72.875 C 37.664062 -72.832031 37.6875 -72.8125 37.6875 -72.8125 C 38.632812 -72.226562 39.625 -71.9375 40.65625 -71.9375 C 42.132812 -71.9375 43.390625 -72.414062 44.421875 -73.375 C 45.453125 -74.40625 45.96875 -75.65625 45.96875 -77.125 Z M 45.96875 -77.34375 "/></g></g></g><g fill="#ffffff" fill-opacity="1"><g transform="translate(51.15224, 80.816945)"><g><path d="M 45.96875 -77.34375 L 46.40625 -77.34375 L 46.40625 -55.25 C 46.40625 -49.132812 44.234375 -43.941406 39.890625 -39.671875 C 39.367188 -39.078125 38.707031 -38.78125 37.90625 -38.78125 C 37.09375 -38.78125 36.425781 -39.078125 35.90625 -39.671875 C 35.320312 -40.179688 35.03125 -40.84375 35.03125 -41.65625 C 35.03125 -42.46875 35.320312 -43.128906 35.90625 -43.640625 C 36.425781 -44.234375 37.09375 -44.53125 37.90625 -44.53125 C 38.707031 -44.53125 39.367188 -44.234375 39.890625 -43.640625 C 40.484375 -43.128906 40.78125 -42.46875 40.78125 -41.65625 C 40.78125 -41.507812 40.738281 -41.363281 40.65625 -41.21875 C 44.195312 -45.269531 45.96875 -49.945312 45.96875 -55.25 C 45.96875 -61.21875 43.832031 -66.335938 39.5625 -70.609375 C 38.894531 -71.273438 38.191406 -71.898438 37.453125 -72.484375 C 37.378906 -72.484375 37.269531 -72.554688 37.125 -72.703125 C 35.207031 -74.109375 33.179688 -75.140625 31.046875 -75.796875 C 28.835938 -76.535156 26.59375 -76.90625 24.3125 -76.90625 C 18.34375 -76.90625 13.257812 -74.769531 9.0625 -70.5 C 8.988281 -70.5 8.953125 -70.5 8.953125 -70.5 C 5.785156 -67.332031 4.566406 -63.132812 5.296875 -57.90625 C 5.960938 -52.601562 8.429688 -47.847656 12.703125 -43.640625 L 39.890625 -20.65625 C 42.765625 -17.789062 44.679688 -14.476562 45.640625 -10.71875 C 46.597656 -6.957031 46.597656 -3.179688 45.640625 0.609375 C 44.679688 4.398438 42.765625 7.734375 39.890625 10.609375 C 35.617188 14.878906 30.460938 17.015625 24.421875 17.015625 L 24.3125 17.015625 C 19.445312 17.015625 15.097656 15.613281 11.265625 12.8125 L 11.265625 12.703125 L 11.15625 12.703125 C 11.082031 12.628906 10.972656 12.554688 10.828125 12.484375 C 9.941406 11.898438 8.984375 11.609375 7.953125 11.609375 C 6.484375 11.609375 5.234375 12.125 4.203125 13.15625 C 3.171875 14.113281 2.65625 15.328125 2.65625 16.796875 L 2.65625 17.015625 L 2.203125 17.015625 L 2.203125 -5.078125 L 2.65625 -5.078125 C 2.65625 0.890625 4.789062 6.007812 9.0625 10.28125 C 9.726562 10.9375 10.425781 11.5625 11.15625 12.15625 C 11.226562 12.226562 11.335938 12.300781 11.484375 12.375 C 15.316406 15.175781 19.59375 16.578125 24.3125 16.578125 L 24.421875 16.578125 C 27.296875 16.578125 30.019531 16.023438 32.59375 14.921875 C 35.25 13.816406 37.570312 12.269531 39.5625 10.28125 C 41.695312 8.144531 42.96875 5.507812 43.375 2.375 C 43.78125 -0.757812 43.335938 -4.019531 42.046875 -7.40625 C 40.753906 -10.789062 38.707031 -13.882812 35.90625 -16.6875 L 8.734375 -39.671875 C 4.378906 -43.941406 2.203125 -49.132812 2.203125 -55.25 C 2.203125 -61.363281 4.378906 -66.554688 8.734375 -70.828125 C 10.796875 -72.960938 13.148438 -74.582031 15.796875 -75.6875 C 18.523438 -76.789062 21.363281 -77.34375 24.3125 -77.34375 C 29.175781 -77.34375 33.519531 -75.910156 37.34375 -73.046875 C 37.414062 -73.046875 37.488281 -73.007812 37.5625 -72.9375 C 37.5625 -72.9375 37.582031 -72.914062 37.625 -72.875 C 37.664062 -72.832031 37.6875 -72.8125 37.6875 -72.8125 C 38.632812 -72.226562 39.625 -71.9375 40.65625 -71.9375 C 42.132812 -71.9375 43.390625 -72.414062 44.421875 -73.375 C 45.453125 -74.40625 45.96875 -75.65625 45.96875 -77.125 Z M 45.96875 -77.34375 "/></g></g></g></g></g><g transform="matrix(1, 0, 0, 1, 129, 181)"><g clip-path="url(#076e0f5e3c)"><g clip-path="url(#ef0a2748fd)"><path fill="#03234d" d="M 6.910156 0.902344 L 110.078125 0.902344 C 111.472656 0.902344 112.808594 1.457031 113.792969 2.441406 C 114.78125 3.425781 115.335938 4.765625 115.335938 6.160156 L 115.335938 16.671875 C 115.335938 18.066406 114.78125 19.402344 113.792969 20.390625 C 112.808594 21.375 111.472656 21.929688 110.078125 21.929688 L 6.910156 21.929688 C 4.007812 21.929688 1.652344 19.574219 1.652344 16.671875 L 1.652344 6.160156 C 1.652344 3.253906 4.007812 0.902344 6.910156 0.902344 Z M 6.910156 0.902344 " fill-opacity="1" fill-rule="nonzero"/></g><g fill="#ffffff" fill-opacity="1"><g transform="translate(8.769567, 16.003693)"><g><path d="M 4 0.109375 C 3.3125 0.109375 2.648438 0.00390625 2.015625 -0.203125 C 1.390625 -0.421875 0.894531 -0.695312 0.53125 -1.03125 L 1.015625 -2.046875 C 1.359375 -1.734375 1.796875 -1.476562 2.328125 -1.28125 C 2.867188 -1.09375 3.425781 -1 4 -1 C 4.75 -1 5.304688 -1.125 5.671875 -1.375 C 6.046875 -1.632812 6.234375 -1.972656 6.234375 -2.390625 C 6.234375 -2.703125 6.128906 -2.953125 5.921875 -3.140625 C 5.722656 -3.335938 5.472656 -3.488281 5.171875 -3.59375 C 4.878906 -3.695312 4.460938 -3.816406 3.921875 -3.953125 C 3.234375 -4.109375 2.679688 -4.269531 2.265625 -4.4375 C 1.847656 -4.601562 1.488281 -4.851562 1.1875 -5.1875 C 0.894531 -5.53125 0.75 -5.992188 0.75 -6.578125 C 0.75 -7.054688 0.875 -7.488281 1.125 -7.875 C 1.382812 -8.269531 1.769531 -8.582031 2.28125 -8.8125 C 2.800781 -9.039062 3.445312 -9.15625 4.21875 -9.15625 C 4.75 -9.15625 5.273438 -9.085938 5.796875 -8.953125 C 6.316406 -8.816406 6.757812 -8.617188 7.125 -8.359375 L 6.703125 -7.328125 C 6.316406 -7.566406 5.910156 -7.75 5.484375 -7.875 C 5.054688 -8 4.632812 -8.0625 4.21875 -8.0625 C 3.488281 -8.0625 2.9375 -7.925781 2.5625 -7.65625 C 2.195312 -7.394531 2.015625 -7.050781 2.015625 -6.625 C 2.015625 -6.3125 2.117188 -6.054688 2.328125 -5.859375 C 2.535156 -5.671875 2.789062 -5.519531 3.09375 -5.40625 C 3.40625 -5.300781 3.820312 -5.191406 4.34375 -5.078125 C 5.03125 -4.910156 5.578125 -4.742188 5.984375 -4.578125 C 6.398438 -4.410156 6.753906 -4.160156 7.046875 -3.828125 C 7.347656 -3.492188 7.5 -3.039062 7.5 -2.46875 C 7.5 -2 7.367188 -1.566406 7.109375 -1.171875 C 6.859375 -0.773438 6.46875 -0.460938 5.9375 -0.234375 C 5.414062 -0.00390625 4.769531 0.109375 4 0.109375 Z M 4 0.109375 "/></g></g></g><g fill="#ffffff" fill-opacity="1"><g transform="translate(20.681648, 16.003693)"><g><path d="M 1.46875 0.078125 C 1.226562 0.078125 1.019531 -0.00390625 0.84375 -0.171875 C 0.675781 -0.335938 0.59375 -0.550781 0.59375 -0.8125 C 0.59375 -1.0625 0.675781 -1.269531 0.84375 -1.4375 C 1.019531 -1.601562 1.226562 -1.6875 1.46875 -1.6875 C 1.71875 -1.6875 1.921875 -1.601562 2.078125 -1.4375 C 2.242188 -1.28125 2.328125 -1.070312 2.328125 -0.8125 C 2.328125 -0.550781 2.242188 -0.335938 2.078125 -0.171875 C 1.910156 -0.00390625 1.707031 0.078125 1.46875 0.078125 Z M 1.46875 0.078125 "/></g></g></g><g fill="#ffffff" fill-opacity="1"><g transform="translate(27.498926, 16.003693)"><g><path d="M 4 0.109375 C 3.3125 0.109375 2.648438 0.00390625 2.015625 -0.203125 C 1.390625 -0.421875 0.894531 -0.695312 0.53125 -1.03125 L 1.015625 -2.046875 C 1.359375 -1.734375 1.796875 -1.476562 2.328125 -1.28125 C 2.867188 -1.09375 3.425781 -1 4 -1 C 4.75 -1 5.304688 -1.125 5.671875 -1.375 C 6.046875 -1.632812 6.234375 -1.972656 6.234375 -2.390625 C 6.234375 -2.703125 6.128906 -2.953125 5.921875 -3.140625 C 5.722656 -3.335938 5.472656 -3.488281 5.171875 -3.59375 C 4.878906 -3.695312 4.460938 -3.816406 3.921875 -3.953125 C 3.234375 -4.109375 2.679688 -4.269531 2.265625 -4.4375 C 1.847656 -4.601562 1.488281 -4.851562 1.1875 -5.1875 C 0.894531 -5.53125 0.75 -5.992188 0.75 -6.578125 C 0.75 -7.054688 0.875 -7.488281 1.125 -7.875 C 1.382812 -8.269531 1.769531 -8.582031 2.28125 -8.8125 C 2.800781 -9.039062 3.445312 -9.15625 4.21875 -9.15625 C 4.75 -9.15625 5.273438 -9.085938 5.796875 -8.953125 C 6.316406 -8.816406 6.757812 -8.617188 7.125 -8.359375 L 6.703125 -7.328125 C 6.316406 -7.566406 5.910156 -7.75 5.484375 -7.875 C 5.054688 -8 4.632812 -8.0625 4.21875 -8.0625 C 3.488281 -8.0625 2.9375 -7.925781 2.5625 -7.65625 C 2.195312 -7.394531 2.015625 -7.050781 2.015625 -6.625 C 2.015625 -6.3125 2.117188 -6.054688 2.328125 -5.859375 C 2.535156 -5.671875 2.789062 -5.519531 3.09375 -5.40625 C 3.40625 -5.300781 3.820312 -5.191406 4.34375 -5.078125 C 5.03125 -4.910156 5.578125 -4.742188 5.984375 -4.578125 C 6.398438 -4.410156 6.753906 -4.160156 7.046875 -3.828125 C 7.347656 -3.492188 7.5 -3.039062 7.5 -2.46875 C 7.5 -2 7.367188 -1.566406 7.109375 -1.171875 C 6.859375 -0.773438 6.46875 -0.460938 5.9375 -0.234375 C 5.414062 -0.00390625 4.769531 0.109375 4 0.109375 Z M 4 0.109375 "/></g></g></g><g fill="#ffffff" fill-opacity="1"><g transform="translate(39.411007, 16.003693)"><g><path d="M 5.453125 0.109375 C 4.535156 0.109375 3.707031 -0.0859375 2.96875 -0.484375 C 2.238281 -0.890625 1.664062 -1.445312 1.25 -2.15625 C 0.832031 -2.863281 0.625 -3.65625 0.625 -4.53125 C 0.625 -5.394531 0.832031 -6.179688 1.25 -6.890625 C 1.664062 -7.597656 2.238281 -8.148438 2.96875 -8.546875 C 3.707031 -8.953125 4.535156 -9.15625 5.453125 -9.15625 C 6.359375 -9.15625 7.175781 -8.953125 7.90625 -8.546875 C 8.632812 -8.148438 9.207031 -7.597656 9.625 -6.890625 C 10.039062 -6.191406 10.25 -5.40625 10.25 -4.53125 C 10.25 -3.644531 10.039062 -2.847656 9.625 -2.140625 C 9.207031 -1.441406 8.632812 -0.890625 7.90625 -0.484375 C 7.175781 -0.0859375 6.359375 0.109375 5.453125 0.109375 Z M 5.453125 -1.046875 C 6.109375 -1.046875 6.703125 -1.195312 7.234375 -1.5 C 7.765625 -1.800781 8.179688 -2.21875 8.484375 -2.75 C 8.796875 -3.28125 8.953125 -3.875 8.953125 -4.53125 C 8.953125 -5.1875 8.796875 -5.78125 8.484375 -6.3125 C 8.179688 -6.84375 7.765625 -7.257812 7.234375 -7.5625 C 6.703125 -7.863281 6.109375 -8.015625 5.453125 -8.015625 C 4.785156 -8.015625 4.179688 -7.863281 3.640625 -7.5625 C 3.097656 -7.257812 2.675781 -6.84375 2.375 -6.3125 C 2.070312 -5.78125 1.921875 -5.1875 1.921875 -4.53125 C 1.921875 -3.875 2.070312 -3.28125 2.375 -2.75 C 2.675781 -2.21875 3.097656 -1.800781 3.640625 -1.5 C 4.179688 -1.195312 4.785156 -1.046875 5.453125 -1.046875 Z M 5.453125 -1.046875 "/></g></g></g><g fill="#ffffff" fill-opacity="1"><g transform="translate(54.154966, 16.003693)"><g><path d="M 5.40625 0.109375 C 4.5 0.109375 3.679688 -0.0859375 2.953125 -0.484375 C 2.222656 -0.890625 1.648438 -1.441406 1.234375 -2.140625 C 0.828125 -2.847656 0.625 -3.644531 0.625 -4.53125 C 0.625 -5.40625 0.828125 -6.191406 1.234375 -6.890625 C 1.648438 -7.597656 2.222656 -8.148438 2.953125 -8.546875 C 3.691406 -8.953125 4.515625 -9.15625 5.421875 -9.15625 C 6.128906 -9.15625 6.773438 -9.035156 7.359375 -8.796875 C 7.941406 -8.566406 8.441406 -8.21875 8.859375 -7.75 L 8.015625 -6.9375 C 7.335938 -7.65625 6.488281 -8.015625 5.46875 -8.015625 C 4.800781 -8.015625 4.191406 -7.863281 3.640625 -7.5625 C 3.097656 -7.257812 2.675781 -6.84375 2.375 -6.3125 C 2.070312 -5.78125 1.921875 -5.1875 1.921875 -4.53125 C 1.921875 -3.875 2.070312 -3.28125 2.375 -2.75 C 2.675781 -2.21875 3.097656 -1.800781 3.640625 -1.5 C 4.191406 -1.195312 4.800781 -1.046875 5.46875 -1.046875 C 6.476562 -1.046875 7.328125 -1.410156 8.015625 -2.140625 L 8.859375 -1.3125 C 8.441406 -0.851562 7.9375 -0.5 7.34375 -0.25 C 6.757812 -0.0078125 6.113281 0.109375 5.40625 0.109375 Z M 5.40625 0.109375 "/></g></g></g><g fill="#ffffff" fill-opacity="1"><g transform="translate(67.385992, 16.003693)"><g><path d="M 1.359375 -9.0625 L 2.65625 -9.0625 L 2.65625 0 L 1.359375 0 Z M 1.359375 -9.0625 "/></g></g></g><g fill="#ffffff" fill-opacity="1"><g transform="translate(75.276545, 16.003693)"><g><path d="M 7.125 -2.265625 L 2.3125 -2.265625 L 1.3125 0 L -0.015625 0 L 4.09375 -9.0625 L 5.375 -9.0625 L 9.484375 0 L 8.125 0 Z M 6.671875 -3.296875 L 4.71875 -7.734375 L 2.765625 -3.296875 Z M 6.671875 -3.296875 "/></g></g></g><g fill="#ffffff" fill-opacity="1"><g transform="translate(88.623958, 16.003693)"><g><path d="M 1.359375 -9.0625 L 2.65625 -9.0625 L 2.65625 -1.125 L 7.5625 -1.125 L 7.5625 0 L 1.359375 0 Z M 1.359375 -9.0625 "/></g></g></g><g fill="#ffffff" fill-opacity="1"><g transform="translate(100.186903, 16.003693)"><g><path d="M 4 0.109375 C 3.3125 0.109375 2.648438 0.00390625 2.015625 -0.203125 C 1.390625 -0.421875 0.894531 -0.695312 0.53125 -1.03125 L 1.015625 -2.046875 C 1.359375 -1.734375 1.796875 -1.476562 2.328125 -1.28125 C 2.867188 -1.09375 3.425781 -1 4 -1 C 4.75 -1 5.304688 -1.125 5.671875 -1.375 C 6.046875 -1.632812 6.234375 -1.972656 6.234375 -2.390625 C 6.234375 -2.703125 6.128906 -2.953125 5.921875 -3.140625 C 5.722656 -3.335938 5.472656 -3.488281 5.171875 -3.59375 C 4.878906 -3.695312 4.460938 -3.816406 3.921875 -3.953125 C 3.234375 -4.109375 2.679688 -4.269531 2.265625 -4.4375 C 1.847656 -4.601562 1.488281 -4.851562 1.1875 -5.1875 C 0.894531 -5.53125 0.75 -5.992188 0.75 -6.578125 C 0.75 -7.054688 0.875 -7.488281 1.125 -7.875 C 1.382812 -8.269531 1.769531 -8.582031 2.28125 -8.8125 C 2.800781 -9.039062 3.445312 -9.15625 4.21875 -9.15625 C 4.75 -9.15625 5.273438 -9.085938 5.796875 -8.953125 C 6.316406 -8.816406 6.757812 -8.617188 7.125 -8.359375 L 6.703125 -7.328125 C 6.316406 -7.566406 5.910156 -7.75 5.484375 -7.875 C 5.054688 -8 4.632812 -8.0625 4.21875 -8.0625 C 3.488281 -8.0625 2.9375 -7.925781 2.5625 -7.65625 C 2.195312 -7.394531 2.015625 -7.050781 2.015625 -6.625 C 2.015625 -6.3125 2.117188 -6.054688 2.328125 -5.859375 C 2.535156 -5.671875 2.789062 -5.519531 3.09375 -5.40625 C 3.40625 -5.300781 3.820312 -5.191406 4.34375 -5.078125 C 5.03125 -4.910156 5.578125 -4.742188 5.984375 -4.578125 C 6.398438 -4.410156 6.753906 -4.160156 7.046875 -3.828125 C 7.347656 -3.492188 7.5 -3.039062 7.5 -2.46875 C 7.5 -2 7.367188 -1.566406 7.109375 -1.171875 C 6.859375 -0.773438 6.46875 -0.460938 5.9375 -0.234375 C 5.414062 -0.00390625 4.769531 0.109375 4 0.109375 Z M 4 0.109375 "/></g></g></g></g></g></svg>